# xmcd
#
# Track frame offsets:
#	150
#	16030
#	28688
#	45794
#	58169
#	70954
#	85221
#	101794
#	118560
#	133544
#	153071
#	168378
#	180250
#	195358
#	216467
#	233454
#	249958
#	266436
#	281253
#	295670
#
# Disc length: 4131 seconds
#
# Revision: 0
# Processed by: cddbd v1.5.1PL2 Copyright (c) Steve Scherf et al.
# Submitted via: dBpowerAMP V4.0
#
DISCID=fd102114
DTITLE=Rionegro&Solimões - As 20 mais
DYEAR=2001
DGENRE=Country
TTITLE0=Amor Desconcentrado
TTITLE1=Na Sola da Bota
TTITLE2=No Fim Desta Estrada
TTITLE3=Rodopiou
TTITLE4=Bate o Pé
TTITLE5=Tendel
TTITLE6=Estrela Guia
TTITLE7=Chumbo Trocado
TTITLE8=Movido Pela Emoção
TTITLE9=Frio da Madrugada
TTITLE10=Só Alegria
TTITLE11=Sapatiô.Sapatiô
TTITLE12=Não Tô Nem Aí
TTITLE13=Só Lembranças
TTITLE14=Saudade Aperta
TTITLE15=Casa Cheia
TTITLE16=A Gente se Entrega
TTITLE17=Tô Indo Embora
TTITLE18=Peão Apaixonado
TTITLE19=De São Paulo a Belém
EXTD='AS VINTE MAIS'
EXTT0=
EXTT1=
EXTT2=
EXTT3=
EXTT4=
EXTT5=
EXTT6=
EXTT7=
EXTT8=
EXTT9=
EXTT10=
EXTT11=
EXTT12=
EXTT13=
EXTT14=
EXTT15=
EXTT16=
EXTT17=
EXTT18=
EXTT19=
PLAYORDER=
